<svg width="32" height="32" viewBox="0 0 32 32" fill="none" xmlns="http://www.w3.org/2000/svg">
<path d="M28.1321 22.1295V14.5385L28.3487 14.4124C28.8085 14.1455 29.0827 13.6693 29.0827 13.1382C29.0827 12.6072 28.8085 12.13 28.3487 11.8632L17.2369 5.40828C16.7761 5.14085 16.2528 5 15.7201 5C15.1873 5 14.664 5.14085 14.2032 5.40828L3.09047 11.8641C2.63163 12.131 2.35742 12.6072 2.35742 13.1382C2.35742 13.6693 2.63163 14.1455 3.09047 14.4133L6.45958 16.3711C6.45958 17.2854 6.45958 17.993 6.45958 18.7066C6.45958 19.3802 6.45958 20.0591 6.45958 20.9221C6.46036 21.4423 6.59771 21.9531 6.85788 22.4035C7.11806 22.8539 7.49194 23.2281 7.94214 23.4887L12.5799 26.1622C13.5479 26.7198 14.6337 26.9995 15.7196 26.9995C16.8055 26.9995 17.8904 26.7207 18.8593 26.1622L23.4962 23.4887C23.9467 23.2284 24.3208 22.8543 24.5812 22.4038C24.8415 21.9533 24.9789 21.4424 24.9796 20.9221V16.3702L26.4869 15.4946V22.1295C26.228 22.3054 26.0324 22.5597 25.9288 22.855C25.8251 23.1503 25.8188 23.471 25.9108 23.7701C26.0029 24.0692 26.1884 24.331 26.4401 24.5169C26.6918 24.7028 26.9965 24.8031 27.3095 24.8031C27.6224 24.8031 27.9271 24.7028 28.1789 24.5169C28.4306 24.331 28.6161 24.0692 28.7081 23.7701C28.8002 23.471 28.7939 23.1503 28.6902 22.855C28.5865 22.5597 28.3909 22.3054 28.1321 22.1295ZM23.3353 20.9212C23.3353 21.391 23.083 21.8279 22.6754 22.0619L18.0385 24.7354C17.333 25.1401 16.5338 25.353 15.7205 25.353C14.9072 25.353 14.108 25.1401 13.4025 24.7354L8.76476 22.0619C8.56457 21.9462 8.3983 21.7799 8.28264 21.5797C8.16697 21.3795 8.10597 21.1524 8.10575 20.9212V19.1237V17.3263L14.2032 20.8691C14.6642 21.1365 15.1876 21.2773 15.7205 21.2773C16.2534 21.2773 16.7769 21.1365 17.2378 20.8691L23.3353 17.3263V20.9212ZM16.4106 19.4468C16.2008 19.5685 15.9626 19.6326 15.7201 19.6326C15.4775 19.6326 15.2393 19.5685 15.0295 19.4468L4.17177 13.1382L15.0286 6.8296C15.2384 6.70793 15.4766 6.64385 15.7192 6.64385C15.9617 6.64385 16.1999 6.70793 16.4097 6.8296L27.2674 13.1373L16.4106 19.4468Z" fill="#CFCEEB"/>
</svg>
